<svg width="161" height="51" viewBox="0 0 161 51" fill="none" xmlns="http://www.w3.org/2000/svg">
<path d="M32.5769 14.2128C41.3489 14.2734 48.5725 21.6115 48.4514 30.3432C48.3369 39.0412 41.1402 46.1571 32.4489 46.1773C23.724 46.1975 16.4398 38.8527 16.5004 30.1075C16.561 21.2749 23.7644 14.159 32.5769 14.2128ZM44.6275 30.2085C44.6409 23.4225 39.1475 17.9155 32.3951 17.9425C25.7706 17.9694 20.3175 23.4427 20.2502 30.1345C20.1762 36.7387 25.71 42.3332 32.321 42.3534C39.1811 42.3803 44.614 37.0215 44.6275 30.2085Z" fill="#FB9A13"></path>
<path d="M18.6613 50.1764C10.3133 49.0387 2.07987 38.8798 0.847883 28.2026C-0.424502 17.1416 6.61737 5.8786 17.362 1.79889C27.8036 -2.16637 40.5342 1.36803 46.4383 10.066C40.3726 4.4783 33.324 1.75176 25.1107 2.9097C16.8705 4.06764 10.6903 8.4503 6.73182 15.748C3.2984 22.0763 2.88774 28.7546 5.21034 35.5541C7.17614 41.2697 9.59973 43.8414 18.6613 50.1764Z" fill="#FB9A13"></path>
<path d="M22.3706 48.749C13.2821 46.7899 6.27391 37.5668 5.99116 27.8388C5.69494 17.7607 12.5618 8.45007 22.3167 5.68987C31.2503 3.1653 42.143 6.81415 45.9669 13.7483C40.9178 9.04923 35.0136 6.69297 28.1333 7.48063C21.1857 8.27503 15.8336 11.7758 12.1444 17.7001C6.523 26.728 7.94349 41.559 22.3706 48.749Z" fill="#FB9A13"></path>
<path d="M45.5967 17.2828C35.4446 8.27508 23.1449 12.0586 17.9005 19.363C14.494 24.1159 13.5044 29.3468 14.9787 34.9548C16.4329 40.4684 20.0413 44.3058 25.5954 47.066C18.0553 45.7465 11.9829 38.2737 11.276 30.0941C10.5557 21.6856 16.0222 13.4117 24.1816 10.5708C32.0381 7.83075 41.2477 10.6785 45.5967 17.2828Z" fill="#FB9A13"></path>
<path d="M32.4759 36.2877C35.8408 36.2877 38.5686 33.5599 38.5686 30.1951C38.5686 26.8302 35.8408 24.1024 32.4759 24.1024C29.1111 24.1024 26.3833 26.8302 26.3833 30.1951C26.3833 33.5599 29.1111 36.2877 32.4759 36.2877Z" fill="#FB9A13"></path>
<g clip-path="url(#clip0_67_2007)">
<path d="M75.7181 36.74C69.1561 36.74 66.3001 33.714 66.3001 29.328V28.75H69.9041V29.124C69.9041 31.946 71.0941 33.374 75.8541 33.374C79.2201 33.374 80.4441 32.456 80.4441 30.348C80.4441 28.274 79.7641 27.526 76.2621 26.812L72.3861 26.03C68.4761 25.282 66.3681 23.378 66.3681 19.774C66.3681 16.408 68.9861 13.28 74.8681 13.28C81.1581 13.28 83.6741 16.816 83.6741 20.862V21.27H80.0701V20.896C80.0701 18.108 78.8461 16.646 74.7661 16.646C71.4001 16.646 70.0401 17.598 70.0401 19.604C70.0401 21.678 70.9581 22.256 74.0861 22.936L77.9621 23.752C82.2461 24.636 84.1161 26.778 84.1161 30.212C84.1161 33.782 81.5321 36.74 75.7181 36.74ZM90.3556 17.36H86.7176L86.6836 13.62H90.3556V17.36ZM90.3896 36.4H86.7176V19.4H90.3896V36.4ZM100.157 34.802C95.4995 34.802 92.9155 31.742 92.9155 26.982C92.9155 22.222 95.5335 19.162 100.293 19.162C103.013 19.162 105.121 20.318 105.937 22.29H106.073V19.502H109.439V35.176C109.439 40.174 106.515 42.52 101.585 42.52C96.7915 42.52 93.7995 40.242 93.7995 36.162H97.4375C97.4375 38.474 98.2875 39.256 101.687 39.256C104.985 39.256 105.801 38.304 105.801 35.176V31.81H105.665C104.883 33.442 102.911 34.802 100.157 34.802ZM96.5875 26.982C96.5875 30.45 98.0155 31.674 101.211 31.674C103.965 31.674 105.801 30.348 105.801 27.492V26.438C105.801 23.616 103.965 22.29 101.143 22.29C97.9815 22.29 96.5875 23.514 96.5875 26.982ZM116.724 36.4H113.052V19.502H116.418V22.664H116.554C117.336 20.862 119.138 19.162 122.436 19.162C126.822 19.162 128.794 21.95 128.794 25.792V36.4H125.122V26.608C125.122 23.582 124.17 22.324 121.076 22.324C118.084 22.324 116.724 23.48 116.724 26.642V36.4ZM139.758 36.74C134.182 36.74 131.564 33.204 131.564 27.934C131.564 22.698 134.692 19.162 139.724 19.162C144.28 19.162 147.476 21.882 147.476 26.506C147.476 27.39 147.374 28.308 147.272 28.818H134.998C135.134 31.912 136.256 33.476 139.792 33.476C142.614 33.476 143.702 32.524 143.702 30.994V30.722H147.34V31.028C147.34 34.496 144.314 36.74 139.758 36.74ZM139.656 22.256C136.46 22.256 135.236 23.752 135.032 26.37H143.974C144.11 23.48 142.546 22.256 139.656 22.256ZM157.312 36.4C153.538 36.4 151.566 35.006 151.566 31.198V22.562H148.744V19.502H151.634L152.416 15.32H155.238V19.502H160.338V22.562H155.238V31.028C155.238 32.796 155.986 33.102 158.264 33.102H160.338V36.094C159.624 36.264 158.468 36.4 157.312 36.4Z" fill="#181717"></path>
</g>
<defs>
<clipPath id="clip0_67_2007">
<rect width="95" height="50" fill="white" transform="translate(66)"></rect>
</clipPath>
</defs>
</svg>